<svg width="200" height="80" viewBox="0 0 200 80" fill="none" xmlns="http://www.w3.org/2000/svg">
  <!-- Circuit pattern left -->
  <line x1="10" y1="15" x2="35" y2="15" stroke="white" stroke-width="2" opacity="0.6"/>
  <circle cx="35" cy="15" r="3" fill="white" opacity="0.6"/>
  <line x1="35" y1="15" x2="45" y2="10" stroke="white" stroke-width="2" opacity="0.6"/>
  <line x1="35" y1="15" x2="45" y2="20" stroke="white" stroke-width="2" opacity="0.6"/>
  
  <line x1="10" y1="25" x2="40" y2="25" stroke="white" stroke-width="2" opacity="0.6"/>
  <circle cx="40" cy="25" r="3" fill="white" opacity="0.6"/>
  
  <line x1="10" y1="35" x2="35" y2="35" stroke="white" stroke-width="2" opacity="0.6"/>
  <circle cx="35" cy="35" r="3" fill="white" opacity="0.6"/>
  <line x1="35" y1="35" x2="45" y2="30" stroke="white" stroke-width="2" opacity="0.6"/>
  <line x1="35" y1="35" x2="45" y2="40" stroke="white" stroke-width="2" opacity="0.6"/>
  
  <!-- Circuit pattern right -->
  <line x1="190" y1="15" x2="165" y2="15" stroke="white" stroke-width="2" opacity="0.6"/>
  <circle cx="165" cy="15" r="3" fill="white" opacity="0.6"/>
  <line x1="165" y1="15" x2="155" y2="10" stroke="white" stroke-width="2" opacity="0.6"/>
  <line x1="165" y1="15" x2="155" y2="20" stroke="white" stroke-width="2" opacity="0.6"/>
  
  <line x1="190" y1="25" x2="160" y2="25" stroke="white" stroke-width="2" opacity="0.6"/>
  <circle cx="160" cy="25" r="3" fill="white" opacity="0.6"/>
  
  <line x1="190" y1="35" x2="165" y2="35" stroke="white" stroke-width="2" opacity="0.6"/>
  <circle cx="165" cy="35" r="3" fill="white" opacity="0.6"/>
  <line x1="165" y1="35" x2="155" y2="30" stroke="white" stroke-width="2" opacity="0.6"/>
  <line x1="165" y1="35" x2="155" y2="40" stroke="white" stroke-width="2" opacity="0.6"/>
  
  <!-- Main circle with CS -->
  <circle cx="100" cy="25" r="20" fill="#6366f1" stroke="white" stroke-width="3"/>
  <text x="100" y="32" font-family="Arial, sans-serif" font-size="18" font-weight="bold" fill="white" text-anchor="middle">CS</text>
  
  <!-- CODESTRIX text -->
  <text x="100" y="58" font-family="Arial, sans-serif" font-size="16" font-weight="bold" fill="white" text-anchor="middle" letter-spacing="2">CODESTRIX</text>
  
  <!-- Tagline -->
  <text x="100" y="72" font-family="Arial, sans-serif" font-size="8" fill="white" text-anchor="middle" letter-spacing="1" opacity="0.8">CODE CREATE CONQUER</text>
</svg>

